<svg width="44" height="44" viewBox="0 0 44 44" fill="none" xmlns="http://www.w3.org/2000/svg">
<circle cx="22" cy="22" r="22" fill="#D9D9D9" fill-opacity="0.1"/>
<path d="M23.7656 11.9872L23.7656 31.6953C23.7656 31.8199 23.8676 31.9219 23.9922 31.9219H25.6914C25.816 31.9219 25.918 31.8199 25.918 31.6953L25.918 14.5559L31.1006 18.6425C31.2479 18.7586 31.4688 18.6538 31.4688 18.4641V16.4108C31.4688 16.2721 31.4064 16.1418 31.296 16.054L25.2326 11.2735C24.6379 10.8063 23.7656 11.2282 23.7656 11.9872V11.9872ZM17.082 11.3047L17.082 28.4441L11.8994 24.3575C11.7521 24.2414 11.5313 24.3462 11.5313 24.5359V26.5892C11.5313 26.7279 11.5936 26.8582 11.704 26.946L17.7674 31.7265C18.3621 32.1937 19.2344 31.7718 19.2344 31.0156L19.2344 11.3047C19.2344 11.1801 19.1324 11.0781 19.0078 11.0781H17.3086C17.184 11.0781 17.082 11.1801 17.082 11.3047Z" fill="#349FEE"/>
</svg>
